FILE "Sports Superbike 2 (Europe).bin" BINARY
  TRACK 01 MODE2/2352
    INDEX 01 00:00:00
  TRACK 02 AUDIO
    INDEX 00 05:30:69
    INDEX 01 05:32:69
  TRACK 03 AUDIO
    INDEX 00 12:12:39
    INDEX 01 12:14:39
  TRACK 04 AUDIO
    INDEX 00 16:39:00
    INDEX 01 16:41:00
REM LEADOUT 19:42:09
